HIERARCHY
ROOT Hips
{
	OFFSET 0.000000 0.000000 0.000000
	CHANNELS 6 Xposition Yposition Zposition Xrotation Yrotation Zrotation
	JOINT LeftUpLeg_virtual
	{
		OFFSET 0.000000 0.000000 0.000000
		CHANNELS 3 Xrotation Yrotation Zrotation
		JOINT LeftUpLeg
		{
			OFFSET 11.394100 -6.187798 -0.413800
			CHANNELS 3 Xrotation Yrotation Zrotation
			JOINT LeftLeg
			{
				OFFSET 0.430247 -32.302673 3.732800
				CHANNELS 3 Xrotation Yrotation Zrotation
				JOINT LeftFoot
				{
					OFFSET -0.430247 -48.264931 -6.423300
					CHANNELS 3 Xrotation Yrotation Zrotation
					JOINT LeftToeBase
					{
						OFFSET 4.230900 -16.068199 23.438400
						CHANNELS 3 Xrotation Yrotation Zrotation
						JOINT LeftToe_End
						{
							OFFSET 4.510700 0.695400 19.974600
							CHANNELS 3 Xrotation Yrotation Zrotation
							End Site
							{
								OFFSET 0 0 0
							}
						}
					}
				}
			}
		}
	}
	JOINT RightUpLeg_virtual
	{
		OFFSET 0.000000 0.000000 0.000000
		CHANNELS 3 Xrotation Yrotation Zrotation
		JOINT RightUpLeg
		{
			OFFSET -11.333700 -6.187798 -0.413800
			CHANNELS 3 Xrotation Yrotation Zrotation
			JOINT RightLeg
			{
				OFFSET -0.430392 -32.302628 3.733000
				CHANNELS 3 Xrotation Yrotation Zrotation
				JOINT RightFoot
				{
					OFFSET 0.430392 -48.264973 -6.423500
					CHANNELS 3 Xrotation Yrotation Zrotation
					JOINT RightToeBase
					{
						OFFSET -4.230900 -16.068199 23.438400
						CHANNELS 3 Xrotation Yrotation Zrotation
						JOINT RightToe_End
						{
							OFFSET -4.510700 0.695400 19.974600
							CHANNELS 3 Xrotation Yrotation Zrotation
							End Site
							{
								OFFSET 0 0 0
							}
						}
					}
				}
			}
		}
	}
	JOINT Spine_virtual
	{
		OFFSET 0.000000 0.000000 0.000000
		CHANNELS 3 Xrotation Yrotation Zrotation
		JOINT Spine
		{
			OFFSET -0.002400 12.777504 0.315300
			CHANNELS 3 Xrotation Yrotation Zrotation
			JOINT Spine1
			{
				OFFSET -0.002067 5.816869 0.032633
				CHANNELS 3 Xrotation Yrotation Zrotation
				JOINT Spine1_split
				{
					OFFSET -0.002067 5.816869 0.032633
					CHANNELS 3 Xrotation Yrotation Zrotation
					JOINT Spine2
					{
						OFFSET -0.002067 5.816869 0.032633
						CHANNELS 3 Xrotation Yrotation Zrotation
						JOINT Neck_virtual
						{
							OFFSET 0.000000 0.000000 0.000000
							CHANNELS 3 Xrotation Yrotation Zrotation
							JOINT Neck
							{
								OFFSET -0.003700 21.199493 -0.826900
								CHANNELS 3 Xrotation Yrotation Zrotation
								JOINT Head
								{
									OFFSET 0.000000 20.442200 4.834800
									CHANNELS 3 Xrotation Yrotation Zrotation
									JOINT HeadTop_End
									{
										OFFSET 0.000000 34.668396 4.968400
										CHANNELS 3 Xrotation Yrotation Zrotation
										End Site
										{
											OFFSET 0 0 0
										}
									}
								}
							}
						}
						JOINT LeftShoulder_virtual
						{
							OFFSET 0.000000 0.000000 0.000000
							CHANNELS 3 Xrotation Yrotation Zrotation
							JOINT LeftShoulder
							{
								OFFSET 3.288150 8.794197 -1.372250
								CHANNELS 3 Xrotation Yrotation Zrotation
								JOINT LeftShoulder_split
								{
									OFFSET 3.288150 8.794197 -1.372250
									CHANNELS 3 Xrotation Yrotation Zrotation
									JOINT LeftArm
									{
										OFFSET 11.953299 -2.279007 -0.146200
										CHANNELS 3 Xrotation Yrotation Zrotation
										JOINT LeftForeArm
										{
											OFFSET 18.448900 0.000000 0.000000
											CHANNELS 3 Xrotation Yrotation Zrotation
											JOINT LeftHand
											{
												OFFSET 29.527798 0.000000 0.000000
												CHANNELS 3 Xrotation Yrotation Zrotation
												End Site
												{
													OFFSET 0 0 0
												}
											}
										}
									}
								}
							}
						}
						JOINT RightShoulder_virtual
						{
							OFFSET 0.000000 0.000000 0.000000
							CHANNELS 3 Xrotation Yrotation Zrotation
							JOINT RightShoulder
							{
								OFFSET -3.249400 8.794197 -1.372250
								CHANNELS 3 Xrotation Yrotation Zrotation
								JOINT RightShoulder_split
								{
									OFFSET -3.249400 8.794197 -1.372250
									CHANNELS 3 Xrotation Yrotation Zrotation
									JOINT RightArm
									{
										OFFSET -11.953299 -2.279007 -0.146200
										CHANNELS 3 Xrotation Yrotation Zrotation
										JOINT RightForeArm
										{
											OFFSET -18.448900 0.000000 0.000000
											CHANNELS 3 Xrotation Yrotation Zrotation
											JOINT RightHand
											{
												OFFSET -29.527802 0.000000 0.000000
												CHANNELS 3 Xrotation Yrotation Zrotation
												End Site
												{
													OFFSET 0 0 0
												}
											}
										}
									}
								}
							}
						}
					}
				}
			}
		}
	}
}
MOTION
Frames: 11
Frame Time: 0.03333333
0.535846 137.222778 14.658756 0.000000 0.000000 0.000000 -88.538356 -5.366140 -1.027102 -12.050507 18.821194 13.787004 5.464728 5.747617 5.056559 18.421314 27.540358 -20.404432 -8.054511 0.462114 1.976206 0.000000 0.000000 0.000000 -90.731400 -3.296575 -0.093955 -15.949422 -15.230091 -13.164233 17.588929 -3.348509 -7.302479 33.285025 -30.443417 30.609527 -13.440655 1.537200 -2.745621 0.000000 0.000000 0.000000 -88.016031 -6.265915 -2.975429 2.943985 -1.556690 0.698382 -2.533868 -1.399743 0.566367 0.988045 2.334311 -0.224297 0.000000 0.000000 0.000000 -2.120571 -1.712746 0.409307 -10.835195 -3.016593 -0.911317 15.506135 -0.342215 3.545550 0.000000 0.000000 0.000000 -0.463739 -1.668099 0.756757 0.717286 1.462879 -5.525403 -0.665031 0.496978 -2.710919 37.876298 -28.009974 -55.023970 -147.679345 -88.760139 -146.544195 0.000000 0.000000 0.000000 -0.453094 -1.378282 0.032452 0.582739 -3.180071 13.284598 2.961037 4.655294 -0.620629 28.462032 23.975656 47.395202 178.487268 79.308960 -179.868688 0.000000 0.000000 0.000000 
0.304663 137.380371 15.091156 0.000000 0.000000 0.000000 -88.535945 -4.995523 -0.780699 -12.426278 18.942908 14.034151 5.417014 5.809158 4.944226 18.687751 27.359373 -20.588029 -8.119694 0.461406 1.931407 0.000000 0.000000 0.000000 -90.243437 -2.998795 0.031226 -15.924000 -14.709886 -13.152532 17.366150 -3.414731 -7.281720 33.681323 -30.504854 30.614936 -13.319663 1.529831 -2.679136 0.000000 0.000000 0.000000 -87.880800 -6.353355 -3.130865 2.720002 -1.648028 0.682103 -2.627146 -1.454872 0.456172 0.775062 1.935817 -0.370461 0.000000 0.000000 0.000000 -2.252523 -1.729884 0.315845 -10.858430 -2.864909 -0.913466 15.669106 -0.488409 3.343262 0.000000 0.000000 0.000000 -0.463698 -1.713166 0.654622 0.752767 0.900902 -5.238791 -0.194233 0.395967 -2.404523 37.699905 -28.215650 -55.044976 -127.304194 -88.883198 -126.081617 0.000000 0.000000 0.000000 -0.516975 -1.400966 -0.062766 0.611273 -3.558875 13.245331 2.799411 4.440637 0.299412 27.364711 24.797722 48.669220 -179.979432 80.085532 178.499863 0.000000 0.000000 0.000000 
0.166906 137.577316 15.390072 0.000000 0.000000 0.000000 -88.402694 -4.911919 -0.727681 -12.653549 18.812323 14.274643 5.424052 5.836065 4.805774 18.825999 27.142212 -20.455228 -8.157765 0.452553 1.845778 0.000000 0.000000 0.000000 -89.634984 -2.872359 0.059597 -16.305618 -14.399603 -13.133785 17.278362 -3.537481 -7.270542 34.255762 -30.488226 30.733375 -13.589039 1.559997 -2.686996 0.000000 0.000000 0.000000 -87.607380 -6.510924 -3.277276 2.513461 -1.709489 0.730402 -2.758857 -1.511495 0.262034 0.563079 1.586648 -0.444238 0.000000 0.000000 0.000000 -2.317967 -1.778043 0.172015 -10.990976 -2.805980 -0.780656 15.663685 -0.732566 3.245934 0.000000 0.000000 0.000000 -0.588304 -1.747380 0.476452 0.811811 -0.005590 -4.677306 0.060103 0.912517 -2.545149 38.238544 -28.803871 -54.172778 -121.125209 -88.995562 -119.884382 0.000000 0.000000 0.000000 -0.609655 -1.424707 -0.197796 0.659539 -4.168838 13.194260 2.552755 4.054300 0.721271 24.131617 25.274796 52.084472 -178.875291 81.535732 177.272533 0.000000 0.000000 0.000000 
0.148335 137.720123 15.550493 0.000000 0.000000 0.000000 -88.178022 -5.167510 -0.877169 -12.750340 18.319899 14.379990 5.581888 5.742779 4.712061 18.804295 26.950649 -20.063800 -8.131598 0.438757 1.711812 0.000000 0.000000 0.000000 -89.110029 -2.936714 0.065519 -17.071108 -14.333970 -13.168332 17.340532 -3.721910 -7.294955 34.667021 -30.508447 30.791954 -14.004440 1.609197 -2.745628 0.000000 0.000000 0.000000 -87.254683 -6.736042 -3.354691 2.358173 -1.739658 0.790659 -2.898592 -1.543048 0.036269 0.345002 1.434940 -0.434730 0.000000 0.000000 0.000000 -2.304256 -1.829130 0.009166 -11.133735 -2.822796 -0.606329 15.569442 -1.016764 3.181854 0.000000 0.000000 0.000000 -0.825950 -1.756799 0.265247 0.886998 -1.083794 -4.056075 0.056651 1.921997 -3.093404 39.235554 -29.505953 -52.669044 -127.174407 -89.176944 -125.962991 0.000000 0.000000 0.000000 -0.733563 -1.431382 -0.336188 0.754639 -4.885784 13.195815 2.370631 3.677441 0.503822 19.157463 24.919600 56.999609 -178.100652 83.688320 176.381330 0.000000 0.000000 0.000000 
0.265060 137.781708 15.603703 0.000000 0.000000 0.000000 -87.898155 -5.675558 -1.065714 -12.718852 17.485848 14.244482 5.869294 5.478153 4.700359 18.674591 26.800047 -19.584796 -8.105631 0.424634 1.540085 0.000000 0.000000 0.000000 -88.727327 -3.204634 0.108376 -18.112304 -14.394204 -13.333861 17.506475 -3.959609 -7.363744 34.539392 -30.736603 30.554301 -14.117236 1.646356 -2.814217 0.000000 0.000000 0.000000 -86.874201 -6.990154 -3.311560 2.287421 -1.757760 0.780633 -2.994246 -1.513287 -0.153385 0.249145 1.321253 -0.455141 0.000000 0.000000 0.000000 -2.225651 -1.861067 -0.124491 -11.167971 -2.877010 -0.527296 15.563843 -1.212422 3.032997 0.000000 0.000000 0.000000 -1.106502 -1.733868 0.086824 0.957212 -2.120223 -3.658356 -0.184778 2.956039 -3.536409 40.329398 -30.040224 -50.889311 -145.924328 -89.320160 -144.783755 0.000000 0.000000 0.000000 -0.868823 -1.418697 -0.431674 0.878639 -5.532088 13.329540 2.074600 3.633187 -0.019423 13.377845 23.562920 62.275732 -177.900664 86.464813 176.088410 0.000000 0.000000 0.000000 
0.460924 137.776276 15.526415 0.000000 0.000000 0.000000 -87.570040 -6.308524 -1.128045 -12.725508 16.437301 13.901321 6.263986 5.075494 4.785802 18.598147 26.680300 -19.226643 -8.183099 0.417559 1.353421 0.000000 0.000000 0.000000 -88.505639 -3.639470 0.231673 -19.286615 -14.449158 -13.671506 17.730995 -4.230881 -7.461362 33.857357 -31.158158 30.023046 -13.803224 1.650061 -2.857951 0.000000 0.000000 0.000000 -86.496074 -7.231617 -3.108453 2.318615 -1.793994 0.648511 -2.983882 -1.420806 -0.255113 0.432457 1.151951 -0.387226 0.000000 0.000000 0.000000 -2.060823 -1.852533 -0.202785 -11.030045 -2.866678 -0.666799 15.904592 -1.333126 2.748658 0.000000 0.000000 0.000000 -1.322812 -1.683516 -0.021964 0.986726 -2.910715 -3.753785 -0.546514 3.841017 -3.650252 41.181932 -30.159127 -49.159156 -164.673388 -89.446798 -163.625801 0.000000 0.000000 0.000000 -0.975512 -1.363911 -0.462162 1.025310 -5.947980 13.689911 1.822433 4.040680 -0.665491 7.947302 21.687143 66.579386 178.407628 89.156044 179.732029 0.000000 0.000000 0.000000 
0.676390 137.712006 15.455772 0.000000 0.000000 0.000000 -87.242034 -6.953040 -1.008584 -12.869225 15.394331 13.424394 6.715178 4.633763 4.952683 18.746626 26.589629 -19.085685 -8.355223 0.410931 1.202336 0.000000 0.000000 0.000000 -88.366262 -4.157295 0.472984 -20.437579 -14.392074 -14.203043 17.938580 -4.424211 -7.565509 32.953525 -31.539215 29.497029 -13.425451 1.631582 -2.908642 0.000000 0.000000 0.000000 -86.178136 -7.421252 -2.750418 2.479697 -1.856479 0.395172 -2.791410 -1.302090 -0.273609 0.728805 0.813106 -0.403994 0.000000 0.000000 0.000000 -1.765531 -1.782312 -0.225813 -10.718087 -2.782227 -1.057232 16.721143 -1.465646 2.315935 0.000000 0.000000 0.000000 -1.350045 -1.623892 -0.065727 0.954226 -3.325960 -4.477193 -0.888931 4.360711 -3.483726 41.419749 -29.877973 -47.760781 -171.076363 -89.789708 -170.112910 0.000000 0.000000 0.000000 -0.961266 -1.274898 -0.442806 1.162628 -6.045383 14.303926 1.605808 4.545091 -1.026113 3.773852 19.978397 68.811977 8.150000 89.059547 -9.946296 0.000000 0.000000 0.000000 
0.903237 137.658905 15.370001 0.000000 0.000000 0.000000 -86.900271 -7.496538 -0.728422 -13.232607 14.543561 12.936408 7.140074 4.287112 5.165101 19.152469 26.553160 -19.126604 -8.546442 0.399167 1.127244 0.000000 0.000000 0.000000 -88.104898 -4.655243 0.780830 -21.349884 -14.182850 -14.780866 18.090880 -4.429604 -7.658500 32.142939 -31.712049 29.262894 -13.233383 1.597101 -2.980321 0.000000 0.000000 0.000000 -85.898986 -7.551951 -2.347359 2.754682 -1.922834 0.105280 -2.349388 -1.154729 -0.227746 1.035800 0.640004 -0.487626 0.000000 0.000000 0.000000 -1.287581 -1.652688 -0.208376 -10.212656 -2.658310 -1.635727 18.130886 -1.553506 1.764444 0.000000 0.000000 0.000000 -1.066404 -1.561278 -0.066261 0.843977 -3.260842 -5.738287 -1.132980 4.335013 -2.925801 41.045820 -29.440202 -46.650376 -4.853493 -89.671354 -3.973383 0.000000 0.000000 0.000000 -0.731998 -1.167043 -0.406640 1.245156 -5.863323 15.171979 1.517671 5.043137 -0.958588 1.510415 19.110523 68.226445 10.609135 88.993417 -12.211310 0.000000 0.000000 0.000000 
1.077136 137.630981 15.294088 0.000000 0.000000 0.000000 -86.519516 -7.841766 -0.383013 -13.828589 14.020634 12.548268 7.475344 4.161266 5.403620 19.754630 26.653536 -19.233591 -8.738636 0.369581 1.184077 0.000000 0.000000 0.000000 -87.662411 -5.035247 1.095750 -21.835813 -13.856931 -15.174664 18.062635 -4.274236 -7.754175 31.483323 -31.719627 29.295419 -13.088873 1.550933 -3.034992 0.000000 0.000000 0.000000 -85.631980 -7.609857 -1.980280 3.116464 -1.955106 -0.080362 -1.589652 -0.995204 -0.157290 1.186463 0.652080 -0.530702 0.000000 0.000000 0.000000 -0.559067 -1.488570 -0.193863 -9.405509 -2.514186 -2.220351 20.073089 -1.606311 1.142235 0.000000 0.000000 0.000000 -0.401814 -1.500866 -0.057907 0.699128 -2.656845 -7.206107 -1.136845 3.718078 -2.327450 40.381673 -29.189937 -45.555087 -4.612699 -89.036727 -3.809019 0.000000 0.000000 0.000000 -0.187067 -1.068146 -0.397350 1.273612 -5.582054 16.242079 1.699557 5.394869 -0.869918 1.235219 19.394681 64.792957 172.011689 88.902644 -173.306802 0.000000 0.000000 0.000000 
1.195558 137.703674 15.204971 0.000000 0.000000 0.000000 -86.124096 -7.991952 -0.090168 -14.519059 13.870947 12.321286 7.702024 4.238204 5.653809 20.445311 26.942448 -19.301288 -8.978667 0.305437 1.406110 0.000000 0.000000 0.000000 -87.076040 -5.235112 1.353534 -21.810517 -13.447626 -15.219538 17.775335 -4.070728 -7.864311 30.807913 -31.723182 29.368260 -12.779492 1.504126 -3.031593 0.000000 0.000000 0.000000 -85.367242 -7.634044 -1.753432 3.507738 -1.910869 -0.034584 -0.473773 -0.841763 -0.111631 1.272365 0.752526 -0.523403 0.000000 0.000000 0.000000 0.483858 -1.305139 -0.221858 -8.190282 -2.374287 -2.670165 22.330373 -1.712176 0.504861 0.000000 0.000000 0.000000 0.682546 -1.441514 -0.078292 0.562664 -1.555512 -8.436967 -0.838446 2.818411 -1.848770 39.581523 -29.442562 -44.376347 -6.557803 -88.583073 -5.813069 0.000000 0.000000 0.000000 0.780811 -1.004437 -0.450933 1.257284 -5.380690 17.455877 1.980475 5.555836 -0.803282 2.747075 20.631671 59.009460 179.198892 85.180614 179.871475 0.000000 0.000000 0.000000 
1.254818 137.911896 15.071741 0.000000 0.000000 0.000000 -85.680707 -8.034632 0.057840 -15.227014 13.982573 12.283257 7.897204 4.407384 5.910001 21.135735 27.387693 -19.342372 -9.306777 0.207598 1.761672 0.000000 0.000000 0.000000 -86.443509 -5.323726 1.462102 -21.438509 -13.057865 -14.907322 17.358709 -3.942848 -7.967622 30.126530 -31.822357 29.310159 -12.259805 1.471012 -2.942300 0.000000 0.000000 0.000000 -85.019579 -7.652129 -1.670114 3.880630 -1.768838 0.282746 1.031253 -0.715490 -0.112225 1.316487 1.075597 -0.467695 0.000000 0.000000 0.000000 1.865943 -1.146775 -0.309206 -6.585870 -2.280893 -2.870910 24.721323 -1.894833 -0.102388 0.000000 0.000000 0.000000 2.177109 -1.395317 -0.141195 0.453117 -0.135711 -9.073359 -0.204271 1.744792 -1.463149 38.699770 -30.379093 -42.999360 -9.693551 -88.560055 -8.959347 0.000000 0.000000 0.000000 2.186310 -0.985366 -0.574580 1.226252 -5.415853 18.815144 2.296470 5.594399 -0.798279 5.425131 22.570837 51.976790 179.912114 80.520991 179.494148 0.000000 0.000000 0.000000 
